<?xml version="1.0" encoding="UTF-8" standalone="no"?>
<!DOCTYPE svg PUBLIC "-//W3C//DTD SVG 1.1//EN"
 "http://www.w3.org/Graphics/SVG/1.1/DTD/svg11.dtd">
<!-- Generated by graphviz version 2.40.1 (20161225.0304)
 -->
<!-- Title: dependencies Pages: 1 -->
<svg width="978pt" height="284pt"
 viewBox="0.00 0.00 978.00 284.00" xmlns="http://www.w3.org/2000/svg" xmlns:xlink="http://www.w3.org/1999/xlink">
<g id="graph0" class="graph" transform="scale(1 1) rotate(0) translate(4 280)">
<title>dependencies</title>
<polygon fill="#ffffff" stroke="transparent" points="-4,4 -4,-280 974,-280 974,4 -4,4"/>
<text text-anchor="start" x="464.0091" y="-42.4" font-family="sans-serif" font-weight="bold" font-size="14.00" fill="#000000">Legend</text>
<polygon fill="#ffffb3" stroke="transparent" points="251,-10 251,-30 271,-30 271,-10 251,-10"/>
<text text-anchor="start" x="274.629" y="-15.4" font-family="sans-serif" font-size="14.00" fill="#000000"> &#160;Declarations</text>
<polygon fill="#8dd3c7" stroke="transparent" points="364,-10 364,-30 384,-30 384,-10 364,-10"/>
<text text-anchor="start" x="387.7251" y="-15.4" font-family="sans-serif" font-size="14.00" fill="#000000"> &#160;Module</text>
<polygon fill="#80b1d3" stroke="transparent" points="450,-10 450,-30 470,-30 470,-10 450,-10"/>
<text text-anchor="start" x="473.7812" y="-15.4" font-family="sans-serif" font-size="14.00" fill="#000000"> &#160;Bootstrap</text>
<polygon fill="#fdb462" stroke="transparent" points="547,-10 547,-30 567,-30 567,-10 547,-10"/>
<text text-anchor="start" x="570.6732" y="-15.4" font-family="sans-serif" font-size="14.00" fill="#000000"> &#160;Providers</text>
<polygon fill="#fb8072" stroke="transparent" points="643,-10 643,-30 663,-30 663,-10 643,-10"/>
<text text-anchor="start" x="666.7258" y="-15.4" font-family="sans-serif" font-size="14.00" fill="#000000"> &#160;Exports</text>
<g id="clust1" class="cluster">
<title>cluster_ConfigurationSummaryModule</title>
<polygon fill="none" stroke="#000000" stroke-dasharray="1,5" points="8,-70 8,-268 962,-268 962,-70 8,-70"/>
</g>
<g id="clust2" class="cluster">
<title>cluster_ConfigurationSummaryModule_declarations</title>
<polygon fill="none" stroke="#000000" points="140,-78 140,-130 954,-130 954,-78 140,-78"/>
</g>
<g id="clust6" class="cluster">
<title>cluster_ConfigurationSummaryModule_imports</title>
<polygon fill="none" stroke="#000000" points="16,-78 16,-130 132,-130 132,-78 16,-78"/>
</g>
<g id="clust7" class="cluster">
<title>cluster_ConfigurationSummaryModule_exports</title>
<polygon fill="none" stroke="#000000" points="73,-208 73,-260 897,-260 897,-208 73,-208"/>
</g>
<!-- CmsConfigurationSummaryComponent -->
<g id="node1" class="node">
<title>CmsConfigurationSummaryComponent</title>
<polygon fill="#ffffb3" stroke="#000000" points="945.9874,-122 706.0126,-122 706.0126,-86 945.9874,-86 945.9874,-122"/>
<text text-anchor="middle" x="826" y="-99.8" font-family="Times,serif" font-size="14.00" fill="#000000">CmsConfigurationSummaryComponent</text>
</g>
<!-- ConfigurationSummaryModule -->
<g id="node4" class="node">
<title>ConfigurationSummaryModule</title>
<polygon fill="#8dd3c7" stroke="#000000" points="590.0336,-187 587.0336,-191 566.0336,-191 563.0336,-187 397.9664,-187 397.9664,-151 590.0336,-151 590.0336,-187"/>
<text text-anchor="middle" x="494" y="-164.8" font-family="Times,serif" font-size="14.00" fill="#000000">ConfigurationSummaryModule</text>
</g>
<!-- CmsConfigurationSummaryComponent&#45;&gt;ConfigurationSummaryModule -->
<g id="edge1" class="edge">
<title>CmsConfigurationSummaryComponent&#45;&gt;ConfigurationSummaryModule</title>
<path fill="none" stroke="#000000" d="M797.375,-122.0225C797.375,-139.3734 797.375,-163 797.375,-163 797.375,-163 600.4066,-163 600.4066,-163"/>
<polygon fill="#000000" stroke="#000000" points="600.4066,-159.5001 590.4066,-163 600.4065,-166.5001 600.4066,-159.5001"/>
</g>
<!-- ConfigurationSummaryWrapperComponent -->
<g id="node2" class="node">
<title>ConfigurationSummaryWrapperComponent</title>
<polygon fill="#ffffb3" stroke="#000000" points="687.7807,-122 424.2193,-122 424.2193,-86 687.7807,-86 687.7807,-122"/>
<text text-anchor="middle" x="556" y="-99.8" font-family="Times,serif" font-size="14.00" fill="#000000">ConfigurationSummaryWrapperComponent</text>
</g>
<!-- ConfigurationSummaryWrapperComponent&#45;&gt;ConfigurationSummaryModule -->
<g id="edge2" class="edge">
<title>ConfigurationSummaryWrapperComponent&#45;&gt;ConfigurationSummaryModule</title>
<path fill="none" stroke="#000000" d="M507.3131,-122.1061C507.3131,-122.1061 507.3131,-140.991 507.3131,-140.991"/>
<polygon fill="#000000" stroke="#000000" points="503.8132,-140.9909 507.3131,-150.991 510.8132,-140.991 503.8132,-140.9909"/>
</g>
<!-- ProductConfigurationSummaryComponent -->
<g id="node3" class="node">
<title>ProductConfigurationSummaryComponent</title>
<polygon fill="#ffffb3" stroke="#000000" points="405.864,-122 148.136,-122 148.136,-86 405.864,-86 405.864,-122"/>
<text text-anchor="middle" x="277" y="-99.8" font-family="Times,serif" font-size="14.00" fill="#000000">ProductConfigurationSummaryComponent</text>
</g>
<!-- ProductConfigurationSummaryComponent&#45;&gt;ConfigurationSummaryModule -->
<g id="edge3" class="edge">
<title>ProductConfigurationSummaryComponent&#45;&gt;ConfigurationSummaryModule</title>
<path fill="none" stroke="#000000" d="M401.8328,-122.1061C401.8328,-122.1061 401.8328,-140.991 401.8328,-140.991"/>
<polygon fill="#000000" stroke="#000000" points="398.3328,-140.9909 401.8328,-150.991 405.3328,-140.991 398.3328,-140.9909"/>
</g>
<!-- CmsConfigurationSummaryComponent  -->
<g id="node6" class="node">
<title>CmsConfigurationSummaryComponent </title>
<polygon fill="#fb8072" stroke="#000000" points="888.9879,-252 645.0121,-252 645.0121,-216 888.9879,-216 888.9879,-252"/>
<text text-anchor="middle" x="767" y="-229.8" font-family="Times,serif" font-size="14.00" fill="#000000">CmsConfigurationSummaryComponent </text>
</g>
<!-- ConfigurationSummaryModule&#45;&gt;CmsConfigurationSummaryComponent  -->
<g id="edge5" class="edge">
<title>ConfigurationSummaryModule&#45;&gt;CmsConfigurationSummaryComponent </title>
<path fill="none" stroke="#000000" stroke-dasharray="5,2" d="M590.0569,-175C629.6539,-175 666.4483,-175 666.4483,-175 666.4483,-175 666.4483,-205.9775 666.4483,-205.9775"/>
<polygon fill="#000000" stroke="#000000" points="662.9484,-205.9774 666.4483,-215.9775 669.9484,-205.9775 662.9484,-205.9774"/>
</g>
<!-- ConfigurationSummaryWrapperComponent  -->
<g id="node7" class="node">
<title>ConfigurationSummaryWrapperComponent </title>
<polygon fill="#fb8072" stroke="#000000" points="627.2807,-252 360.7193,-252 360.7193,-216 627.2807,-216 627.2807,-252"/>
<text text-anchor="middle" x="494" y="-229.8" font-family="Times,serif" font-size="14.00" fill="#000000">ConfigurationSummaryWrapperComponent </text>
</g>
<!-- ConfigurationSummaryModule&#45;&gt;ConfigurationSummaryWrapperComponent  -->
<g id="edge6" class="edge">
<title>ConfigurationSummaryModule&#45;&gt;ConfigurationSummaryWrapperComponent </title>
<path fill="none" stroke="#000000" stroke-dasharray="5,2" d="M494,-187.1061C494,-187.1061 494,-205.991 494,-205.991"/>
<polygon fill="#000000" stroke="#000000" points="490.5001,-205.9909 494,-215.991 497.5001,-205.991 490.5001,-205.9909"/>
</g>
<!-- ProductConfigurationSummaryComponent  -->
<g id="node8" class="node">
<title>ProductConfigurationSummaryComponent </title>
<polygon fill="#fb8072" stroke="#000000" points="342.8643,-252 81.1357,-252 81.1357,-216 342.8643,-216 342.8643,-252"/>
<text text-anchor="middle" x="212" y="-229.8" font-family="Times,serif" font-size="14.00" fill="#000000">ProductConfigurationSummaryComponent </text>
</g>
<!-- ConfigurationSummaryModule&#45;&gt;ProductConfigurationSummaryComponent  -->
<g id="edge7" class="edge">
<title>ConfigurationSummaryModule&#45;&gt;ProductConfigurationSummaryComponent </title>
<path fill="none" stroke="#000000" stroke-dasharray="5,2" d="M397.8751,-175C327.912,-175 245.375,-175 245.375,-175 245.375,-175 245.375,-205.9775 245.375,-205.9775"/>
<polygon fill="#000000" stroke="#000000" points="241.8751,-205.9774 245.375,-215.9775 248.8751,-205.9775 241.8751,-205.9774"/>
</g>
<!-- PricingModule -->
<g id="node5" class="node">
<title>PricingModule</title>
<polygon fill="#8dd3c7" stroke="#000000" points="123.9888,-122 120.9888,-126 99.9888,-126 96.9888,-122 24.0112,-122 24.0112,-86 123.9888,-86 123.9888,-122"/>
<text text-anchor="middle" x="74" y="-99.8" font-family="Times,serif" font-size="14.00" fill="#000000">PricingModule</text>
</g>
<!-- PricingModule&#45;&gt;ConfigurationSummaryModule -->
<g id="edge4" class="edge">
<title>PricingModule&#45;&gt;ConfigurationSummaryModule</title>
<path fill="none" stroke="#000000" d="M102.6562,-122.0225C102.6562,-139.3734 102.6562,-163 102.6562,-163 102.6562,-163 387.7653,-163 387.7653,-163"/>
<polygon fill="#000000" stroke="#000000" points="387.7654,-166.5001 397.7653,-163 387.7653,-159.5001 387.7654,-166.5001"/>
</g>
</g>
</svg>
