<?xml version="1.0" encoding="UTF-8" standalone="no"?>
<!DOCTYPE svg PUBLIC "-//W3C//DTD SVG 1.1//EN"
 "http://www.w3.org/Graphics/SVG/1.1/DTD/svg11.dtd">
<!-- Generated by graphviz version 2.40.1 (20161225.0304)
 -->
<!-- Title: dependencies Pages: 1 -->
<svg width="1351pt" height="284pt"
 viewBox="0.00 0.00 1351.00 284.00" xmlns="http://www.w3.org/2000/svg" xmlns:xlink="http://www.w3.org/1999/xlink">
<g id="graph0" class="graph" transform="scale(1 1) rotate(0) translate(4 280)">
<title>dependencies</title>
<polygon fill="#ffffff" stroke="transparent" points="-4,4 -4,-280 1347,-280 1347,4 -4,4"/>
<text text-anchor="start" x="650.5091" y="-42.4" font-family="sans-serif" font-weight="bold" font-size="14.00" fill="#000000">Legend</text>
<polygon fill="#ffffb3" stroke="transparent" points="437.5,-10 437.5,-30 457.5,-30 457.5,-10 437.5,-10"/>
<text text-anchor="start" x="461.129" y="-15.4" font-family="sans-serif" font-size="14.00" fill="#000000"> &#160;Declarations</text>
<polygon fill="#8dd3c7" stroke="transparent" points="550.5,-10 550.5,-30 570.5,-30 570.5,-10 550.5,-10"/>
<text text-anchor="start" x="574.2251" y="-15.4" font-family="sans-serif" font-size="14.00" fill="#000000"> &#160;Module</text>
<polygon fill="#80b1d3" stroke="transparent" points="636.5,-10 636.5,-30 656.5,-30 656.5,-10 636.5,-10"/>
<text text-anchor="start" x="660.2812" y="-15.4" font-family="sans-serif" font-size="14.00" fill="#000000"> &#160;Bootstrap</text>
<polygon fill="#fdb462" stroke="transparent" points="733.5,-10 733.5,-30 753.5,-30 753.5,-10 733.5,-10"/>
<text text-anchor="start" x="757.1732" y="-15.4" font-family="sans-serif" font-size="14.00" fill="#000000"> &#160;Providers</text>
<polygon fill="#fb8072" stroke="transparent" points="829.5,-10 829.5,-30 849.5,-30 849.5,-10 829.5,-10"/>
<text text-anchor="start" x="853.2258" y="-15.4" font-family="sans-serif" font-size="14.00" fill="#000000"> &#160;Exports</text>
<g id="clust1" class="cluster">
<title>cluster_ConfigurationModule</title>
<polygon fill="none" stroke="#000000" stroke-dasharray="1,5" points="8,-70 8,-268 1335,-268 1335,-70 8,-70"/>
</g>
<g id="clust2" class="cluster">
<title>cluster_ConfigurationModule_declarations</title>
<polygon fill="none" stroke="#000000" points="512,-78 512,-130 1327,-130 1327,-78 512,-78"/>
</g>
<g id="clust7" class="cluster">
<title>cluster_ConfigurationModule_imports</title>
<polygon fill="none" stroke="#000000" points="16,-78 16,-130 504,-130 504,-78 16,-78"/>
</g>
<g id="clust8" class="cluster">
<title>cluster_ConfigurationModule_exports</title>
<polygon fill="none" stroke="#000000" points="478,-208 478,-260 726,-260 726,-208 478,-208"/>
</g>
<!-- AccordionGroupComponent -->
<g id="node1" class="node">
<title>AccordionGroupComponent</title>
<polygon fill="#ffffb3" stroke="#000000" points="1319.1867,-122 1142.8133,-122 1142.8133,-86 1319.1867,-86 1319.1867,-122"/>
<text text-anchor="middle" x="1231" y="-99.8" font-family="Times,serif" font-size="14.00" fill="#000000">AccordionGroupComponent</text>
</g>
<!-- ConfigurationModule -->
<g id="node5" class="node">
<title>ConfigurationModule</title>
<polygon fill="#8dd3c7" stroke="#000000" points="671.094,-187 668.094,-191 647.094,-191 644.094,-187 532.906,-187 532.906,-151 671.094,-151 671.094,-187"/>
<text text-anchor="middle" x="602" y="-164.8" font-family="Times,serif" font-size="14.00" fill="#000000">ConfigurationModule</text>
</g>
<!-- AccordionGroupComponent&#45;&gt;ConfigurationModule -->
<g id="edge1" class="edge">
<title>AccordionGroupComponent&#45;&gt;ConfigurationModule</title>
<path fill="none" stroke="#000000" d="M1231,-122.2921C1231,-144.2057 1231,-178 1231,-178 1231,-178 681.1133,-178 681.1133,-178"/>
<polygon fill="#000000" stroke="#000000" points="681.1133,-174.5001 671.1133,-178 681.1133,-181.5001 681.1133,-174.5001"/>
</g>
<!-- CmsProductConfigurationComponent -->
<g id="node2" class="node">
<title>CmsProductConfigurationComponent</title>
<polygon fill="#ffffb3" stroke="#000000" points="1124.5968,-122 895.4032,-122 895.4032,-86 1124.5968,-86 1124.5968,-122"/>
<text text-anchor="middle" x="1010" y="-99.8" font-family="Times,serif" font-size="14.00" fill="#000000">CmsProductConfigurationComponent</text>
</g>
<!-- CmsProductConfigurationComponent&#45;&gt;ConfigurationModule -->
<g id="edge2" class="edge">
<title>CmsProductConfigurationComponent&#45;&gt;ConfigurationModule</title>
<path fill="none" stroke="#000000" d="M1010,-122.1061C1010,-141.3391 1010,-169 1010,-169 1010,-169 681.2116,-169 681.2116,-169"/>
<polygon fill="#000000" stroke="#000000" points="681.2117,-165.5001 671.2116,-169 681.2116,-172.5001 681.2117,-165.5001"/>
</g>
<!-- ProductAttributeComponent -->
<g id="node3" class="node">
<title>ProductAttributeComponent</title>
<polygon fill="#ffffb3" stroke="#000000" points="877.9255,-122 702.0745,-122 702.0745,-86 877.9255,-86 877.9255,-122"/>
<text text-anchor="middle" x="790" y="-99.8" font-family="Times,serif" font-size="14.00" fill="#000000">ProductAttributeComponent</text>
</g>
<!-- ProductAttributeComponent&#45;&gt;ConfigurationModule -->
<g id="edge3" class="edge">
<title>ProductAttributeComponent&#45;&gt;ConfigurationModule</title>
<path fill="none" stroke="#000000" d="M710.293,-122.027C710.293,-138.3976 710.293,-160 710.293,-160 710.293,-160 681.1967,-160 681.1967,-160"/>
<polygon fill="#000000" stroke="#000000" points="681.1967,-156.5001 671.1967,-160 681.1967,-163.5001 681.1967,-156.5001"/>
</g>
<!-- ProductOptionComponent -->
<g id="node4" class="node">
<title>ProductOptionComponent</title>
<polygon fill="#ffffb3" stroke="#000000" points="683.7688,-122 520.2312,-122 520.2312,-86 683.7688,-86 683.7688,-122"/>
<text text-anchor="middle" x="602" y="-99.8" font-family="Times,serif" font-size="14.00" fill="#000000">ProductOptionComponent</text>
</g>
<!-- ProductOptionComponent&#45;&gt;ConfigurationModule -->
<g id="edge4" class="edge">
<title>ProductOptionComponent&#45;&gt;ConfigurationModule</title>
<path fill="none" stroke="#000000" d="M602,-122.1061C602,-122.1061 602,-140.991 602,-140.991"/>
<polygon fill="#000000" stroke="#000000" points="598.5001,-140.9909 602,-150.991 605.5001,-140.991 598.5001,-140.9909"/>
</g>
<!-- CmsProductConfigurationComponent  -->
<g id="node9" class="node">
<title>CmsProductConfigurationComponent </title>
<polygon fill="#fb8072" stroke="#000000" points="718.0971,-252 485.9029,-252 485.9029,-216 718.0971,-216 718.0971,-252"/>
<text text-anchor="middle" x="602" y="-229.8" font-family="Times,serif" font-size="14.00" fill="#000000">CmsProductConfigurationComponent </text>
</g>
<!-- ConfigurationModule&#45;&gt;CmsProductConfigurationComponent  -->
<g id="edge8" class="edge">
<title>ConfigurationModule&#45;&gt;CmsProductConfigurationComponent </title>
<path fill="none" stroke="#000000" stroke-dasharray="5,2" d="M602,-187.1061C602,-187.1061 602,-205.991 602,-205.991"/>
<polygon fill="#000000" stroke="#000000" points="598.5001,-205.9909 602,-215.991 605.5001,-205.991 598.5001,-205.9909"/>
</g>
<!-- ConfigurationSummaryModule -->
<g id="node6" class="node">
<title>ConfigurationSummaryModule</title>
<polygon fill="#8dd3c7" stroke="#000000" points="496.0336,-122 493.0336,-126 472.0336,-126 469.0336,-122 303.9664,-122 303.9664,-86 496.0336,-86 496.0336,-122"/>
<text text-anchor="middle" x="400" y="-99.8" font-family="Times,serif" font-size="14.00" fill="#000000">ConfigurationSummaryModule</text>
</g>
<!-- ConfigurationSummaryModule&#45;&gt;ConfigurationModule -->
<g id="edge5" class="edge">
<title>ConfigurationSummaryModule&#45;&gt;ConfigurationModule</title>
<path fill="none" stroke="#000000" d="M490.9841,-122.027C490.9841,-138.3976 490.9841,-160 490.9841,-160 490.9841,-160 522.6381,-160 522.6381,-160"/>
<polygon fill="#000000" stroke="#000000" points="522.6382,-163.5001 532.6381,-160 522.6381,-156.5001 522.6382,-163.5001"/>
</g>
<!-- ConstraintRuleModule -->
<g id="node7" class="node">
<title>ConstraintRuleModule</title>
<polygon fill="#8dd3c7" stroke="#000000" points="286.3202,-122 283.3202,-126 262.3202,-126 259.3202,-122 141.6798,-122 141.6798,-86 286.3202,-86 286.3202,-122"/>
<text text-anchor="middle" x="214" y="-99.8" font-family="Times,serif" font-size="14.00" fill="#000000">ConstraintRuleModule</text>
</g>
<!-- ConstraintRuleModule&#45;&gt;ConfigurationModule -->
<g id="edge6" class="edge">
<title>ConstraintRuleModule&#45;&gt;ConfigurationModule</title>
<path fill="none" stroke="#000000" d="M214,-122.1061C214,-141.3391 214,-169 214,-169 214,-169 522.6334,-169 522.6334,-169"/>
<polygon fill="#000000" stroke="#000000" points="522.6334,-172.5001 532.6334,-169 522.6333,-165.5001 522.6334,-172.5001"/>
</g>
<!-- PricingModule -->
<g id="node8" class="node">
<title>PricingModule</title>
<polygon fill="#8dd3c7" stroke="#000000" points="123.9888,-122 120.9888,-126 99.9888,-126 96.9888,-122 24.0112,-122 24.0112,-86 123.9888,-86 123.9888,-122"/>
<text text-anchor="middle" x="74" y="-99.8" font-family="Times,serif" font-size="14.00" fill="#000000">PricingModule</text>
</g>
<!-- PricingModule&#45;&gt;ConfigurationModule -->
<g id="edge7" class="edge">
<title>PricingModule&#45;&gt;ConfigurationModule</title>
<path fill="none" stroke="#000000" d="M74,-122.2921C74,-144.2057 74,-178 74,-178 74,-178 522.702,-178 522.702,-178"/>
<polygon fill="#000000" stroke="#000000" points="522.702,-181.5001 532.702,-178 522.7019,-174.5001 522.702,-181.5001"/>
</g>
</g>
</svg>
